<svg xmlns="http://www.w3.org/2000/svg" xmlns:xlink="http://www.w3.org/1999/xlink" width="1080" zoomAndPan="magnify" viewBox="0 0 810 809.999993" height="1080" preserveAspectRatio="xMidYMid meet" version="1.0"><defs><clipPath id="9f85972e99"><path d="M 608.425781 325.015625 L 719.382812 325.015625 L 719.382812 436.292969 L 608.425781 436.292969 Z M 608.425781 325.015625 " clip-rule="nonzero"/></clipPath><clipPath id="25d9cf60c6"><path d="M 467 66.785156 L 579 66.785156 L 579 178 L 467 178 Z M 467 66.785156 " clip-rule="nonzero"/></clipPath><clipPath id="099fc0837b"><path d="M 90.882812 632 L 201.878906 632 L 201.878906 743.121094 L 90.882812 743.121094 Z M 90.882812 632 " clip-rule="nonzero"/></clipPath></defs><rect x="-81" width="972" fill="#ffffff" y="-80.999999" height="971.999992" fill-opacity="1"/><rect x="-81" width="972" fill="#ffffff" y="-80.999999" height="971.999992" fill-opacity="1"/><path fill="#231f20" d="M 503.191406 212.480469 C 534.25 224.527344 562.351562 242.515625 586.117188 265.050781 C 585.199219 278.363281 578.441406 290.945312 567.097656 302.136719 C 550.5 266.730469 528.089844 237.304688 501.820312 216.625 L 497.910156 228.445312 C 522.097656 248.410156 542.695312 276.484375 557.929688 310.121094 C 535.050781 327.851562 499.964844 341.125 458.785156 346.851562 L 454.667969 359.3125 C 499.109375 354.007812 537.046875 340.320312 562.710938 321.332031 C 572.289062 345.078125 579.300781 371.246094 583.136719 399.066406 L 583.570312 398.933594 L 583.570312 398.941406 L 594.554688 395.535156 C 590.320312 366.164062 582.628906 338.582031 572.171875 313.601562 C 584.695312 302.214844 593.089844 289.285156 596.421875 275.378906 C 610.535156 290.386719 622.851562 307.085938 633.003906 325.167969 C 636.441406 323.253906 640.074219 321.660156 643.867188 320.394531 C 613.757812 266.28125 565.277344 223.761719 506.894531 201.273438 L 503.191406 212.480469 " fill-opacity="1" fill-rule="nonzero"/><path fill="#231f20" d="M 405.863281 702.257812 C 368.097656 700.429688 333.339844 681.164062 305.289062 649.808594 C 334.449219 658.660156 367.9375 664.050781 405.863281 664.667969 Z M 488.855469 690.460938 C 495.25 686.316406 501.464844 681.714844 507.445312 676.605469 C 505.714844 672.832031 504.351562 668.863281 503.382812 664.730469 C 478.292969 687.230469 449.011719 700.734375 417.660156 702.257812 L 417.660156 664.667969 C 447.984375 664.355469 476 660.839844 501.855469 654.164062 C 501.773438 652.859375 501.65625 651.570312 501.65625 650.242188 C 501.65625 647.488281 501.894531 644.785156 502.234375 642.113281 C 477.796875 648.648438 449.8125 652.578125 417.660156 652.917969 L 417.660156 520.613281 C 415.652344 520.808594 413.625 520.917969 411.566406 520.917969 C 409.644531 520.917969 407.742188 520.800781 405.863281 520.632812 L 405.863281 652.878906 C 361.4375 652.125 323.421875 644.644531 291.554688 632.734375 C 282.796875 620.675781 274.886719 607.34375 267.996094 592.902344 L 258.992188 600.984375 C 263.042969 609.195312 267.40625 617.066406 272.070312 624.554688 C 263.328125 620.484375 255.128906 616.054688 247.453125 611.339844 L 238.339844 619.519531 C 252.058594 628.199219 267.386719 636.023438 284.421875 642.613281 C 299.144531 662.203125 316.089844 678.417969 334.664062 690.460938 C 294.878906 677.742188 259.355469 655.449219 230.773438 626.3125 L 221.996094 634.1875 C 270.222656 683.546875 337.453125 714.265625 411.757812 714.265625 C 449.363281 714.265625 485.136719 706.359375 517.578125 692.203125 C 514.925781 689.195312 512.5625 685.933594 510.511719 682.464844 C 503.453125 685.457031 496.21875 688.105469 488.855469 690.460938 " fill-opacity="1" fill-rule="nonzero"/><path fill="#231f20" d="M 665.269531 444.332031 C 665.300781 445.867188 665.386719 447.382812 665.386719 448.925781 C 665.386719 475.742188 661.167969 501.589844 653.414062 525.878906 C 639.878906 547.835938 621.875 572.605469 595.824219 594.414062 C 599.257812 596.289062 602.488281 598.484375 605.5 600.933594 C 614.625 593.121094 623.292969 584.550781 631.519531 575.265625 C 625.339844 585.960938 618.417969 596.15625 610.796875 605.796875 C 613.617188 608.675781 616.160156 611.816406 618.398438 615.191406 C 655.132812 569.664062 677.183594 511.835938 677.183594 448.925781 C 677.183594 446.949219 677.078125 445 677.039062 443.027344 C 673.230469 443.832031 669.292969 444.246094 665.269531 444.332031 " fill-opacity="1" fill-rule="nonzero"/><path fill="#231f20" d="M 232.28125 601.1875 C 201.964844 579.074219 181.550781 552.433594 170.320312 526.492188 C 162.4375 502.027344 158.136719 475.972656 158.136719 448.925781 C 158.136719 437.359375 158.984375 425.996094 160.492188 414.835938 C 170.855469 438.609375 194.058594 459.945312 226.21875 476.921875 C 229.097656 515.75 237.902344 552.089844 251.296875 584.121094 L 260.535156 575.824219 C 249.328125 547.835938 241.71875 516.488281 238.601562 483.078125 C 265.488281 495.480469 297.585938 505.027344 332.988281 510.796875 L 344.269531 500.679688 C 303.390625 495.035156 266.824219 484.417969 237.632812 470.226562 C 237.230469 463.203125 236.972656 456.105469 236.972656 448.925781 C 236.972656 412.953125 242.195312 378.734375 251.546875 347.699219 L 241.59375 340.289062 C 231.078125 373.46875 225.171875 410.234375 225.171875 448.925781 C 225.171875 453.933594 225.292969 458.902344 225.488281 463.839844 C 188.570312 443.09375 166.1875 416.140625 166.1875 386.703125 L 165.886719 386.703125 C 168.773438 375.28125 172.476562 364.203125 176.859375 353.460938 C 173.070312 352.273438 169.4375 350.726562 165.988281 348.878906 C 153.355469 379.78125 146.335938 413.542969 146.335938 448.925781 C 146.335938 477.386719 150.898438 504.796875 159.234375 530.527344 L 159.207031 530.539062 C 159.246094 530.632812 159.292969 530.730469 159.339844 530.824219 C 170.246094 564.335938 187.652344 594.921875 210.066406 621.117188 L 218.839844 613.25 C 212.757812 606.117188 207.019531 598.695312 201.746094 590.914062 C 208.304688 597.261719 215.519531 603.371094 223.347656 609.203125 L 232.28125 601.1875 " fill-opacity="1" fill-rule="nonzero"/><path fill="#231f20" d="M 405.863281 349.886719 C 347.03125 348.628906 295.726562 332.363281 266.339844 308.445312 C 296.6875 242.566406 347.71875 198.40625 405.863281 195.582031 Z M 334.660156 207.386719 C 304.402344 227 278.457031 257.761719 259.429688 295.988281 C 258.890625 306.546875 255.796875 316.421875 250.703125 325.019531 L 257.4375 330.039062 C 258.730469 326.523438 260.074219 323.058594 261.476562 319.65625 C 293.332031 344.296875 345.449219 360.453125 405.863281 361.667969 L 405.863281 393.925781 C 407.742188 393.757812 409.644531 393.636719 411.566406 393.636719 C 413.621094 393.636719 415.652344 393.75 417.660156 393.945312 L 417.660156 361.710938 C 423.675781 361.632812 429.609375 361.414062 435.453125 361.050781 L 439.457031 348.960938 C 432.320312 349.511719 425.042969 349.820312 417.660156 349.914062 L 417.660156 195.589844 C 440.832031 196.710938 462.867188 204.402344 482.925781 217.421875 L 490.199219 195.414062 C 465.394531 187.734375 439.058594 183.578125 411.757812 183.578125 C 346.277344 183.578125 286.300781 207.457031 239.964844 246.898438 C 242.804688 249.617188 245.375 252.609375 247.671875 255.816406 C 272.914062 234.34375 302.382812 217.707031 334.660156 207.386719 " fill-opacity="1" fill-rule="nonzero"/><path fill="#231f20" d="M 446.527344 515.8125 L 443.65625 512.152344 C 440.816406 513.820312 437.839844 515.273438 434.742188 516.492188 C 438.695312 516.304688 442.621094 516.078125 446.527344 515.8125 " fill-opacity="1" fill-rule="nonzero"/><path fill="#231f20" d="M 367.777344 503.347656 L 355.976562 513.941406 C 366.554688 515.125 377.371094 515.988281 388.386719 516.492188 C 380.667969 513.460938 373.6875 508.972656 367.777344 503.347656 " fill-opacity="1" fill-rule="nonzero"/><path fill="#231f20" d="M 565.3125 586.605469 C 567.257812 586.605469 569.175781 586.726562 571.074219 586.898438 C 585.152344 554.148438 594.375 516.746094 597.316406 476.726562 C 616.746094 466.425781 632.886719 454.546875 644.875 441.476562 C 641.042969 440.277344 637.367188 438.707031 633.878906 436.839844 C 624.445312 446.566406 612.347656 455.574219 598.046875 463.644531 C 598.234375 458.769531 598.347656 453.867188 598.347656 448.925781 C 598.347656 436.875 597.726562 425.035156 596.625 413.410156 L 585.113281 416.984375 C 586.03125 427.453125 586.550781 438.097656 586.550781 448.925781 C 586.550781 456.042969 586.292969 463.074219 585.894531 470.046875 C 551.984375 486.601562 508.082031 498.355469 458.964844 503.011719 L 467.515625 513.902344 C 512.085938 508.871094 552.351562 497.988281 584.933594 482.898438 C 581.410156 520.90625 572.066406 556.261719 558.238281 587.023438 C 560.566406 586.769531 562.917969 586.605469 565.3125 586.605469 " fill-opacity="1" fill-rule="nonzero"/><path fill="#231f20" d="M 429.574219 458.164062 C 424.722656 462.308594 418.4375 464.832031 411.566406 464.832031 C 404.699219 464.832031 398.417969 462.308594 393.566406 458.164062 C 385.261719 460.234375 378.796875 465.359375 378.796875 478.101562 C 384.347656 490.6875 396.921875 499.488281 411.566406 499.488281 C 426.210938 499.488281 438.785156 490.6875 444.34375 478.101562 C 444.34375 465.359375 437.878906 460.234375 429.574219 458.164062 " fill-opacity="1" fill-rule="nonzero"/><path fill="#231f20" d="M 411.566406 459.800781 C 424.078125 459.800781 434.25 449.621094 434.25 437.113281 C 434.25 424.621094 424.078125 414.441406 411.566406 414.441406 C 399.058594 414.441406 388.882812 424.621094 388.882812 437.113281 C 388.882812 449.621094 399.058594 459.800781 411.566406 459.800781 " fill-opacity="1" fill-rule="nonzero"/><path fill="#231f20" d="M 411.566406 507.675781 C 383.769531 507.675781 361.152344 485.066406 361.152344 457.28125 C 361.152344 429.488281 383.769531 406.878906 411.566406 406.878906 C 439.363281 406.878906 461.980469 429.488281 461.980469 457.28125 C 461.980469 485.066406 439.363281 507.675781 411.566406 507.675781 Z M 467.023438 457.28125 C 467.023438 426.707031 442.144531 401.835938 411.566406 401.835938 C 380.992188 401.835938 356.113281 426.707031 356.113281 457.28125 C 356.113281 487.839844 380.992188 512.714844 411.566406 512.714844 C 442.144531 512.714844 467.023438 487.839844 467.023438 457.28125 " fill-opacity="1" fill-rule="nonzero"/><path fill="#231f20" d="M 583.324219 651.136719 C 578.476562 655.28125 572.1875 657.800781 565.316406 657.800781 C 558.449219 657.800781 552.167969 655.28125 547.316406 651.136719 C 539.011719 653.207031 532.546875 658.328125 532.546875 671.082031 C 538.097656 683.652344 550.675781 692.453125 565.316406 692.453125 C 579.960938 692.453125 592.535156 683.652344 598.09375 671.082031 C 598.09375 658.328125 591.632812 653.207031 583.324219 651.136719 " fill-opacity="1" fill-rule="nonzero"/><path fill="#231f20" d="M 565.316406 652.765625 C 577.824219 652.765625 588 642.582031 588 630.078125 C 588 617.585938 577.824219 607.402344 565.316406 607.402344 C 552.804688 607.402344 542.632812 617.585938 542.632812 630.078125 C 542.632812 642.582031 552.804688 652.765625 565.316406 652.765625 " fill-opacity="1" fill-rule="nonzero"/><path fill="#231f20" d="M 565.316406 700.640625 C 537.519531 700.640625 514.90625 678.039062 514.90625 650.242188 C 514.90625 622.453125 537.519531 599.851562 565.316406 599.851562 C 593.113281 599.851562 615.726562 622.453125 615.726562 650.242188 C 615.726562 678.039062 593.113281 700.640625 565.316406 700.640625 Z M 565.316406 594.808594 C 534.742188 594.808594 509.863281 619.679688 509.863281 650.242188 C 509.863281 680.8125 534.742188 705.6875 565.316406 705.6875 C 595.898438 705.6875 620.777344 680.8125 620.777344 650.242188 C 620.777344 619.679688 595.898438 594.808594 565.316406 594.808594 " fill-opacity="1" fill-rule="nonzero"/><path fill="#231f20" d="M 195.925781 334.953125 C 210.570312 334.953125 223.144531 326.15625 228.703125 313.574219 C 228.703125 300.828125 222.238281 295.707031 213.933594 293.628906 C 209.082031 297.777344 202.800781 300.300781 195.925781 300.300781 C 189.0625 300.300781 182.777344 297.777344 177.925781 293.628906 C 169.621094 295.707031 163.15625 300.828125 163.15625 313.574219 C 168.710938 326.15625 181.285156 334.953125 195.925781 334.953125 " fill-opacity="1" fill-rule="nonzero"/><path fill="#231f20" d="M 195.925781 295.269531 C 208.441406 295.269531 218.609375 285.089844 218.609375 272.585938 C 218.609375 260.085938 208.441406 249.902344 195.925781 249.902344 C 183.414062 249.902344 173.246094 260.085938 173.246094 272.585938 C 173.246094 285.089844 183.414062 295.269531 195.925781 295.269531 " fill-opacity="1" fill-rule="nonzero"/><path fill="#231f20" d="M 195.925781 242.351562 C 223.726562 242.351562 246.339844 264.960938 246.339844 292.75 C 246.339844 320.535156 223.726562 343.144531 195.925781 343.144531 C 168.128906 343.144531 145.515625 320.535156 145.515625 292.75 C 145.515625 264.960938 168.128906 242.351562 195.925781 242.351562 Z M 195.925781 348.183594 C 226.503906 348.183594 251.386719 323.3125 251.386719 292.75 C 251.386719 262.179688 226.503906 237.304688 195.925781 237.304688 C 165.351562 237.304688 140.476562 262.179688 140.476562 292.75 C 140.476562 323.3125 165.351562 348.183594 195.925781 348.183594 " fill-opacity="1" fill-rule="nonzero"/><path fill="#231f20" d="M 681.933594 381.636719 C 677.085938 385.785156 670.800781 388.308594 663.929688 388.308594 C 657.0625 388.308594 650.777344 385.785156 645.929688 381.636719 C 637.625 383.714844 631.15625 388.832031 631.15625 401.582031 C 636.710938 414.164062 649.285156 422.960938 663.929688 422.960938 C 678.570312 422.960938 691.144531 414.164062 696.707031 401.582031 C 696.707031 388.832031 690.242188 383.714844 681.933594 381.636719 " fill-opacity="1" fill-rule="nonzero"/><path fill="#231f20" d="M 663.925781 383.28125 C 676.4375 383.28125 686.609375 373.097656 686.609375 360.585938 C 686.609375 348.09375 676.4375 337.910156 663.925781 337.910156 C 651.414062 337.910156 641.238281 348.09375 641.238281 360.585938 C 641.238281 373.097656 651.414062 383.28125 663.925781 383.28125 " fill-opacity="1" fill-rule="nonzero"/><g clip-path="url(#9f85972e99)"><path fill="#231f20" d="M 663.925781 431.15625 C 636.128906 431.15625 613.511719 408.542969 613.511719 380.757812 C 613.511719 352.960938 636.128906 330.351562 663.925781 330.351562 C 691.722656 330.351562 714.339844 352.960938 714.339844 380.757812 C 714.339844 408.542969 691.722656 431.15625 663.925781 431.15625 Z M 663.925781 325.3125 C 633.351562 325.3125 608.476562 350.1875 608.476562 380.757812 C 608.476562 411.320312 633.351562 436.183594 663.925781 436.183594 C 694.507812 436.183594 719.382812 411.320312 719.382812 380.757812 C 719.382812 350.1875 694.507812 325.3125 663.925781 325.3125 " fill-opacity="1" fill-rule="nonzero"/></g><path fill="#231f20" d="M 522.804688 164.613281 C 537.449219 164.613281 550.019531 155.820312 555.582031 143.242188 C 555.582031 130.492188 549.121094 125.367188 540.8125 123.296875 C 535.960938 127.441406 529.675781 129.960938 522.804688 129.960938 C 515.9375 129.960938 509.65625 127.441406 504.804688 123.296875 C 496.5 125.367188 490.042969 130.492188 490.042969 143.242188 C 495.59375 155.820312 508.164062 164.613281 522.804688 164.613281 " fill-opacity="1" fill-rule="nonzero"/><path fill="#231f20" d="M 522.808594 124.921875 C 535.324219 124.921875 545.492188 114.746094 545.492188 102.238281 C 545.492188 89.742188 535.324219 79.558594 522.808594 79.558594 C 510.300781 79.558594 500.125 89.742188 500.125 102.238281 C 500.125 114.746094 510.300781 124.921875 522.808594 124.921875 " fill-opacity="1" fill-rule="nonzero"/><g clip-path="url(#25d9cf60c6)"><path fill="#231f20" d="M 522.808594 72.007812 C 550.605469 72.007812 573.21875 94.617188 573.21875 122.40625 C 573.21875 150.199219 550.605469 172.800781 522.808594 172.800781 C 495.011719 172.800781 472.394531 150.199219 472.394531 122.40625 C 472.394531 94.617188 495.011719 72.007812 522.808594 72.007812 Z M 522.808594 177.847656 C 553.390625 177.847656 578.269531 152.972656 578.269531 122.40625 C 578.269531 91.84375 553.390625 66.964844 522.808594 66.964844 C 492.234375 66.964844 467.359375 91.84375 467.359375 122.40625 C 467.359375 152.972656 492.234375 177.847656 522.808594 177.847656 " fill-opacity="1" fill-rule="nonzero"/></g><path fill="#231f20" d="M 164.339844 688.570312 C 159.492188 692.71875 153.207031 695.238281 146.335938 695.238281 C 139.472656 695.238281 133.183594 692.71875 128.335938 688.570312 C 120.03125 690.640625 113.566406 695.765625 113.566406 708.515625 C 119.121094 721.09375 131.695312 729.898438 146.335938 729.898438 C 160.976562 729.898438 173.550781 721.09375 179.109375 708.515625 C 179.109375 695.765625 172.648438 690.640625 164.339844 688.570312 " fill-opacity="1" fill-rule="nonzero"/><path fill="#231f20" d="M 146.335938 690.207031 C 158.847656 690.207031 169.019531 680.023438 169.019531 667.519531 C 169.019531 655.027344 158.847656 644.847656 146.335938 644.847656 C 133.824219 644.847656 123.65625 655.027344 123.65625 667.519531 C 123.65625 680.023438 133.824219 690.207031 146.335938 690.207031 " fill-opacity="1" fill-rule="nonzero"/><g clip-path="url(#099fc0837b)"><path fill="#231f20" d="M 146.335938 738.082031 C 118.539062 738.082031 95.921875 715.472656 95.921875 687.683594 C 95.921875 659.894531 118.539062 637.285156 146.335938 637.285156 C 174.132812 637.285156 196.75 659.894531 196.75 687.683594 C 196.75 715.472656 174.132812 738.082031 146.335938 738.082031 Z M 146.335938 632.242188 C 115.761719 632.242188 90.882812 657.113281 90.882812 687.683594 C 90.882812 718.246094 115.761719 743.121094 146.335938 743.121094 C 176.914062 743.121094 201.792969 718.246094 201.792969 687.683594 C 201.792969 657.113281 176.914062 632.242188 146.335938 632.242188 " fill-opacity="1" fill-rule="nonzero"/></g><path fill="#231f20" d="M 477.445312 428.347656 L 470.460938 430.09375 L 473.082031 440.5625 L 480.0625 438.816406 L 477.445312 428.347656 " fill-opacity="1" fill-rule="nonzero"/><path fill="#231f20" d="M 543.9375 411.734375 L 529.160156 415.425781 L 531.78125 425.894531 L 546.558594 422.203125 L 543.9375 411.734375 " fill-opacity="1" fill-rule="nonzero"/><path fill="#231f20" d="M 521.777344 417.273438 L 507 420.964844 L 509.613281 431.433594 L 524.390625 427.742188 L 521.777344 417.273438 " fill-opacity="1" fill-rule="nonzero"/><path fill="#231f20" d="M 588.273438 400.65625 L 573.496094 404.347656 L 576.109375 414.816406 L 590.886719 411.125 L 588.273438 400.65625 " fill-opacity="1" fill-rule="nonzero"/><path fill="#231f20" d="M 566.105469 406.195312 L 551.332031 409.886719 L 553.945312 420.355469 L 568.722656 416.664062 L 566.105469 406.195312 " fill-opacity="1" fill-rule="nonzero"/><path fill="#231f20" d="M 499.609375 422.8125 L 484.832031 426.503906 L 487.449219 436.972656 L 502.222656 433.28125 L 499.609375 422.8125 " fill-opacity="1" fill-rule="nonzero"/><path fill="#231f20" d="M 595.65625 398.8125 L 598.277344 409.28125 L 605.261719 407.535156 L 602.640625 397.066406 L 595.65625 398.8125 " fill-opacity="1" fill-rule="nonzero"/><path fill="#231f20" d="M 427.882812 394.089844 L 438.121094 397.519531 L 440.40625 390.695312 L 430.167969 387.269531 L 427.882812 394.089844 " fill-opacity="1" fill-rule="nonzero"/><path fill="#231f20" d="M 468.179688 273.792969 L 478.417969 277.222656 L 483.171875 263.035156 L 472.929688 259.609375 L 468.179688 273.792969 " fill-opacity="1" fill-rule="nonzero"/><path fill="#231f20" d="M 461.054688 295.066406 L 471.289062 298.492188 L 476.042969 284.3125 L 465.804688 280.882812 L 461.054688 295.066406 " fill-opacity="1" fill-rule="nonzero"/><path fill="#231f20" d="M 475.308594 252.511719 L 485.542969 255.941406 L 490.292969 241.757812 L 480.058594 238.332031 L 475.308594 252.511719 " fill-opacity="1" fill-rule="nonzero"/><path fill="#231f20" d="M 482.4375 231.234375 L 492.671875 234.667969 L 497.425781 220.484375 L 487.1875 217.050781 L 482.4375 231.234375 " fill-opacity="1" fill-rule="nonzero"/><path fill="#231f20" d="M 453.925781 316.347656 L 464.164062 319.773438 L 468.917969 305.589844 L 458.675781 302.160156 L 453.925781 316.347656 " fill-opacity="1" fill-rule="nonzero"/><path fill="#231f20" d="M 489.570312 209.960938 L 499.800781 213.386719 L 504.554688 199.203125 L 494.320312 195.777344 L 489.570312 209.960938 " fill-opacity="1" fill-rule="nonzero"/><path fill="#231f20" d="M 446.800781 337.621094 L 457.03125 341.050781 L 461.785156 326.863281 L 451.554688 323.433594 L 446.800781 337.621094 " fill-opacity="1" fill-rule="nonzero"/><path fill="#231f20" d="M 439.671875 358.898438 L 449.910156 362.328125 L 454.660156 348.140625 L 444.421875 344.714844 L 439.671875 358.898438 " fill-opacity="1" fill-rule="nonzero"/><path fill="#231f20" d="M 432.542969 380.175781 L 442.78125 383.601562 L 447.53125 369.414062 L 437.292969 365.988281 L 432.542969 380.175781 " fill-opacity="1" fill-rule="nonzero"/><path fill="#231f20" d="M 509.210938 185.292969 L 498.972656 181.863281 L 496.6875 188.6875 L 506.929688 192.113281 L 509.210938 185.292969 " fill-opacity="1" fill-rule="nonzero"/><path fill="#231f20" d="M 365.785156 418.695312 L 360.097656 414.292969 L 353.484375 422.820312 L 359.171875 427.226562 L 365.785156 418.695312 " fill-opacity="1" fill-rule="nonzero"/><path fill="#231f20" d="M 320.070312 396.902344 L 331.203125 405.542969 L 337.828125 397.011719 L 326.691406 388.375 L 320.070312 396.902344 " fill-opacity="1" fill-rule="nonzero"/><path fill="#231f20" d="M 269.953125 358.027344 L 281.09375 366.664062 L 287.707031 358.136719 L 276.566406 349.496094 L 269.953125 358.027344 " fill-opacity="1" fill-rule="nonzero"/><path fill="#231f20" d="M 336.777344 409.859375 L 347.910156 418.5 L 354.535156 409.96875 L 343.394531 401.332031 L 336.777344 409.859375 " fill-opacity="1" fill-rule="nonzero"/><path fill="#231f20" d="M 253.246094 345.070312 L 264.386719 353.707031 L 271 345.179688 L 259.863281 336.542969 L 253.246094 345.070312 " fill-opacity="1" fill-rule="nonzero"/><path fill="#231f20" d="M 286.65625 370.988281 L 297.792969 379.625 L 304.414062 371.097656 L 293.277344 362.457031 L 286.65625 370.988281 " fill-opacity="1" fill-rule="nonzero"/><path fill="#231f20" d="M 303.363281 383.941406 L 314.5 392.582031 L 321.121094 384.050781 L 309.984375 375.414062 L 303.363281 383.941406 " fill-opacity="1" fill-rule="nonzero"/><path fill="#231f20" d="M 241.996094 336.34375 L 247.679688 340.75 L 254.296875 332.21875 L 248.609375 327.808594 L 241.996094 336.34375 " fill-opacity="1" fill-rule="nonzero"/><path fill="#231f20" d="M 192.359375 640.804688 L 199.507812 648.890625 L 204.902344 644.125 L 197.753906 636.039062 L 192.359375 640.804688 " fill-opacity="1" fill-rule="nonzero"/><path fill="#231f20" d="M 321.722656 540.933594 L 314.574219 532.847656 L 303.449219 542.671875 L 310.597656 550.761719 L 321.722656 540.933594 " fill-opacity="1" fill-rule="nonzero"/><path fill="#231f20" d="M 271.65625 585.160156 L 264.507812 577.074219 L 253.382812 586.898438 L 260.527344 594.988281 L 271.65625 585.160156 " fill-opacity="1" fill-rule="nonzero"/><path fill="#231f20" d="M 288.34375 570.417969 L 281.195312 562.328125 L 270.070312 572.160156 L 277.21875 580.246094 L 288.34375 570.417969 " fill-opacity="1" fill-rule="nonzero"/><path fill="#231f20" d="M 305.03125 555.675781 L 297.886719 547.589844 L 286.757812 557.417969 L 293.90625 565.503906 L 305.03125 555.675781 " fill-opacity="1" fill-rule="nonzero"/><path fill="#231f20" d="M 238.277344 614.640625 L 231.128906 606.554688 L 220.003906 616.382812 L 227.152344 624.46875 L 238.277344 614.640625 " fill-opacity="1" fill-rule="nonzero"/><path fill="#231f20" d="M 254.96875 599.902344 L 247.820312 591.816406 L 236.691406 601.640625 L 243.839844 609.726562 L 254.96875 599.902344 " fill-opacity="1" fill-rule="nonzero"/><path fill="#231f20" d="M 203.316406 631.125 L 210.464844 639.210938 L 221.589844 629.386719 L 214.441406 621.292969 L 203.316406 631.125 " fill-opacity="1" fill-rule="nonzero"/><path fill="#231f20" d="M 338.40625 526.191406 L 331.257812 518.105469 L 320.136719 527.933594 L 327.285156 536.019531 L 338.40625 526.191406 " fill-opacity="1" fill-rule="nonzero"/><path fill="#231f20" d="M 355.09375 511.449219 L 347.945312 503.359375 L 336.820312 513.191406 L 343.96875 521.277344 L 355.09375 511.449219 " fill-opacity="1" fill-rule="nonzero"/><path fill="#231f20" d="M 366.050781 501.777344 L 358.902344 493.6875 L 353.511719 498.449219 L 360.65625 506.539062 L 366.050781 501.777344 " fill-opacity="1" fill-rule="nonzero"/><path fill="#231f20" d="M 461.390625 509.671875 L 457.15625 503.855469 L 448.429688 510.203125 L 452.664062 516.023438 L 461.390625 509.671875 " fill-opacity="1" fill-rule="nonzero"/><path fill="#231f20" d="M 519.097656 588.976562 L 511.398438 578.40625 L 502.671875 584.753906 L 510.367188 595.324219 L 519.097656 588.976562 " fill-opacity="1" fill-rule="nonzero"/><path fill="#231f20" d="M 507.554688 573.117188 L 499.859375 562.542969 L 491.128906 568.894531 L 498.824219 579.46875 L 507.554688 573.117188 " fill-opacity="1" fill-rule="nonzero"/><path fill="#231f20" d="M 484.46875 541.398438 L 476.777344 530.824219 L 468.050781 537.167969 L 475.742188 547.742188 L 484.46875 541.398438 " fill-opacity="1" fill-rule="nonzero"/><path fill="#231f20" d="M 496.011719 557.257812 L 488.320312 546.6875 L 479.589844 553.03125 L 487.28125 563.605469 L 496.011719 557.257812 " fill-opacity="1" fill-rule="nonzero"/><path fill="#231f20" d="M 472.929688 525.539062 L 465.238281 514.960938 L 456.507812 521.308594 L 464.199219 531.882812 L 472.929688 525.539062 " fill-opacity="1" fill-rule="nonzero"/><path fill="#231f20" d="M 527.175781 600.082031 L 522.941406 594.269531 L 514.210938 600.617188 L 518.445312 606.433594 L 527.175781 600.082031 " fill-opacity="1" fill-rule="nonzero"/></svg>