<svg xmlns="http://www.w3.org/2000/svg" xmlns:xlink="http://www.w3.org/1999/xlink" width="1080" zoomAndPan="magnify" viewBox="0 0 810 809.999993" height="1080" preserveAspectRatio="xMidYMid meet" version="1.0"><defs><clipPath id="4032effbf9"><path d="M 361 85.96875 L 449 85.96875 L 449 174 L 361 174 Z M 361 85.96875 " clip-rule="nonzero"/></clipPath><clipPath id="e9daf738e3"><path d="M 361 636 L 449 636 L 449 724.21875 L 361 724.21875 Z M 361 636 " clip-rule="nonzero"/></clipPath></defs><rect x="-81" width="972" fill="#ffffff" y="-80.999999" height="971.999992" fill-opacity="1"/><rect x="-81" width="972" fill="#ffffff" y="-80.999999" height="971.999992" fill-opacity="1"/><path fill="#000000" d="M 436.316406 670.003906 C 433.695312 670.003906 431.453125 668.507812 429.957031 666.265625 C 427.714844 662.523438 429.210938 658.039062 432.574219 655.792969 L 608.308594 554.46875 C 612.046875 552.222656 616.535156 553.347656 618.777344 557.085938 C 620.648438 560.824219 619.527344 565.3125 615.789062 567.179688 L 440.054688 668.882812 C 438.933594 669.628906 437.808594 670.003906 436.316406 670.003906 Z M 373.5 670.003906 C 372.378906 670.003906 371.253906 669.628906 369.761719 668.882812 L 194.027344 567.179688 C 190.660156 565.3125 189.539062 560.824219 191.410156 557.085938 C 193.277344 553.347656 198.140625 552.222656 201.503906 554.46875 L 377.238281 655.792969 C 380.976562 658.039062 382.097656 662.523438 380.230469 666.265625 C 378.734375 668.507812 376.117188 670.003906 373.5 670.003906 Z M 643.457031 514.085938 C 639.34375 514.085938 635.976562 510.722656 635.976562 506.609375 L 635.976562 303.578125 C 635.976562 299.464844 639.34375 296.101562 643.457031 296.101562 C 647.570312 296.101562 650.933594 299.464844 650.933594 303.578125 L 650.933594 506.609375 C 650.933594 510.722656 647.570312 514.085938 643.457031 514.085938 Z M 166.359375 514.085938 C 162.246094 514.085938 158.878906 510.722656 158.878906 506.609375 L 158.878906 303.578125 C 158.878906 299.464844 162.246094 296.101562 166.359375 296.101562 C 170.84375 296.101562 173.835938 299.464844 173.835938 303.578125 L 173.835938 506.609375 C 173.835938 510.722656 170.84375 514.085938 166.359375 514.085938 Z M 612.046875 256.839844 C 610.925781 256.839844 609.804688 256.46875 608.308594 255.71875 L 432.574219 154.394531 C 429.210938 152.148438 427.714844 147.664062 429.957031 143.921875 C 431.828125 140.558594 436.6875 139.0625 440.054688 141.304688 L 615.789062 242.632812 C 619.527344 244.875 620.648438 249.363281 618.777344 253.101562 C 617.28125 255.347656 614.664062 256.839844 612.046875 256.839844 Z M 197.765625 256.839844 C 195.148438 256.839844 192.90625 255.347656 191.410156 253.101562 C 189.164062 249.363281 190.660156 244.875 194.027344 242.632812 L 369.761719 141.304688 C 373.5 139.0625 377.984375 140.558594 380.230469 143.921875 C 382.097656 147.664062 380.976562 152.148438 377.238281 154.394531 L 201.503906 255.71875 C 200.382812 256.46875 199.261719 256.839844 197.765625 256.839844 Z M 197.765625 256.839844 " fill-opacity="1" fill-rule="evenodd"/><path fill="#000000" d="M 404.90625 651.683594 C 400.792969 651.683594 397.429688 648.316406 397.429688 644.203125 L 397.429688 441.175781 C 397.429688 437.0625 400.792969 433.695312 404.90625 433.695312 C 409.019531 433.695312 412.386719 437.0625 412.386719 441.175781 L 412.386719 644.203125 C 412.386719 648.316406 409.019531 651.683594 404.90625 651.683594 Z M 373.5 394.4375 C 372.378906 394.4375 371.253906 394.0625 369.761719 393.316406 L 194.027344 291.988281 C 190.660156 289.746094 189.539062 285.257812 191.410156 281.519531 C 193.652344 278.152344 198.140625 277.03125 201.503906 278.902344 L 377.238281 380.601562 C 380.976562 382.472656 382.097656 386.960938 380.230469 390.699219 C 378.734375 392.941406 376.117188 394.4375 373.5 394.4375 Z M 373.5 394.4375 " fill-opacity="1" fill-rule="evenodd"/><path fill="#000000" d="M 436.316406 394.4375 C 433.695312 394.4375 431.453125 392.941406 429.957031 390.699219 C 427.714844 386.960938 429.210938 382.472656 432.574219 380.601562 L 608.308594 278.902344 C 612.046875 277.03125 616.535156 278.152344 618.777344 281.894531 C 620.648438 285.257812 619.527344 289.746094 615.789062 291.988281 L 440.054688 393.316406 C 438.933594 394.0625 437.808594 394.4375 436.316406 394.4375 Z M 436.316406 394.4375 " fill-opacity="1" fill-rule="evenodd"/><path fill="#000000" d="M 404.90625 448.652344 C 380.976562 448.652344 361.535156 429.210938 361.535156 404.90625 C 361.535156 380.976562 380.976562 361.535156 404.90625 361.535156 C 429.210938 361.535156 448.652344 380.976562 448.652344 404.90625 C 448.652344 429.210938 429.210938 448.652344 404.90625 448.652344 Z M 404.90625 376.492188 C 389.203125 376.492188 376.492188 389.203125 376.492188 404.90625 C 376.492188 420.984375 389.203125 433.695312 404.90625 433.695312 C 420.984375 433.695312 433.695312 420.984375 433.695312 404.90625 C 433.695312 389.203125 420.984375 376.492188 404.90625 376.492188 Z M 404.90625 376.492188 " fill-opacity="1" fill-rule="evenodd"/><g clip-path="url(#4032effbf9)"><path fill="#000000" d="M 404.90625 173.460938 C 380.976562 173.460938 361.535156 153.644531 361.535156 129.714844 C 361.535156 105.410156 380.976562 85.96875 404.90625 85.96875 C 429.210938 85.96875 448.652344 105.410156 448.652344 129.714844 C 448.652344 153.644531 429.210938 173.460938 404.90625 173.460938 Z M 404.90625 100.925781 C 389.203125 100.925781 376.492188 113.636719 376.492188 129.714844 C 376.492188 145.417969 389.203125 158.503906 404.90625 158.503906 C 420.984375 158.503906 433.695312 145.417969 433.695312 129.714844 C 433.695312 113.636719 420.984375 100.925781 404.90625 100.925781 Z M 404.90625 100.925781 " fill-opacity="1" fill-rule="evenodd"/></g><g clip-path="url(#e9daf738e3)"><path fill="#000000" d="M 404.90625 724.21875 C 380.976562 724.21875 361.535156 704.402344 361.535156 680.472656 C 361.535156 656.167969 380.976562 636.726562 404.90625 636.726562 C 429.210938 636.726562 448.652344 656.167969 448.652344 680.472656 C 448.652344 704.402344 429.210938 724.21875 404.90625 724.21875 Z M 404.90625 651.683594 C 389.203125 651.683594 376.492188 664.394531 376.492188 680.472656 C 376.492188 696.175781 389.203125 709.261719 404.90625 709.261719 C 420.984375 709.261719 433.695312 696.175781 433.695312 680.472656 C 433.695312 664.394531 420.984375 651.683594 404.90625 651.683594 Z M 404.90625 651.683594 " fill-opacity="1" fill-rule="evenodd"/></g><path fill="#000000" d="M 643.457031 311.058594 C 619.527344 311.058594 599.710938 291.242188 599.710938 267.3125 C 599.710938 243.382812 619.527344 223.566406 643.457031 223.566406 C 667.757812 223.566406 687.203125 243.382812 687.203125 267.3125 C 687.203125 291.242188 667.757812 311.058594 643.457031 311.058594 Z M 643.457031 238.519531 C 627.753906 238.519531 614.664062 251.605469 614.664062 267.3125 C 614.664062 283.390625 627.753906 296.101562 643.457031 296.101562 C 659.535156 296.101562 672.246094 283.390625 672.246094 267.3125 C 672.246094 251.605469 659.535156 238.519531 643.457031 238.519531 Z M 643.457031 238.519531 " fill-opacity="1" fill-rule="evenodd"/><path fill="#000000" d="M 643.457031 586.25 C 619.527344 586.25 599.710938 566.804688 599.710938 542.875 C 599.710938 518.574219 619.527344 499.128906 643.457031 499.128906 C 667.757812 499.128906 687.203125 518.574219 687.203125 542.875 C 687.203125 566.804688 667.757812 586.25 643.457031 586.25 Z M 643.457031 514.085938 C 627.753906 514.085938 614.664062 526.796875 614.664062 542.875 C 614.664062 558.582031 627.753906 571.292969 643.457031 571.292969 C 659.535156 571.292969 672.246094 558.582031 672.246094 542.875 C 672.246094 526.796875 659.535156 514.085938 643.457031 514.085938 Z M 643.457031 514.085938 " fill-opacity="1" fill-rule="evenodd"/><path fill="#000000" d="M 166.359375 586.25 C 142.429688 586.25 122.984375 566.804688 122.984375 542.875 C 122.984375 518.574219 142.429688 499.128906 166.359375 499.128906 C 190.660156 499.128906 210.105469 518.574219 210.105469 542.875 C 210.105469 566.804688 190.660156 586.25 166.359375 586.25 Z M 166.359375 514.085938 C 150.652344 514.085938 137.941406 526.796875 137.941406 542.875 C 137.941406 558.582031 150.652344 571.292969 166.359375 571.292969 C 182.433594 571.292969 195.148438 558.582031 195.148438 542.875 C 195.148438 526.796875 182.433594 514.085938 166.359375 514.085938 Z M 166.359375 514.085938 " fill-opacity="1" fill-rule="evenodd"/><path fill="#000000" d="M 166.359375 311.058594 C 142.429688 311.058594 122.984375 291.242188 122.984375 267.3125 C 122.984375 243.382812 142.429688 223.566406 166.359375 223.566406 C 190.660156 223.566406 210.105469 243.382812 210.105469 267.3125 C 210.105469 291.242188 190.660156 311.058594 166.359375 311.058594 Z M 166.359375 238.519531 C 150.652344 238.519531 137.941406 251.605469 137.941406 267.3125 C 137.941406 283.390625 150.652344 296.101562 166.359375 296.101562 C 182.433594 296.101562 195.148438 283.390625 195.148438 267.3125 C 195.148438 251.605469 182.433594 238.519531 166.359375 238.519531 Z M 166.359375 238.519531 " fill-opacity="1" fill-rule="evenodd"/></svg>