<svg xmlns="http://www.w3.org/2000/svg" xmlns:xlink="http://www.w3.org/1999/xlink" width="1080" zoomAndPan="magnify" viewBox="0 0 810 809.999993" height="1080" preserveAspectRatio="xMidYMid meet" version="1.0"><defs><clipPath id="127dfb751a"><path d="M 88 91 L 720 91 L 720 723.425781 L 88 723.425781 Z M 88 91 " clip-rule="nonzero"/></clipPath></defs><rect x="-81" width="972" fill="#ffffff" y="-80.999999" height="971.999992" fill-opacity="1"/><rect x="-81" width="972" fill="#ffffff" y="-80.999999" height="971.999992" fill-opacity="1"/><g clip-path="url(#127dfb751a)"><path fill="#100f0d" d="M 358.761719 379.890625 C 369.023438 390.15625 383.183594 395.042969 397.539062 393.414062 C 420.871094 390.746094 424.671875 360.988281 426.152344 349.785156 C 427.039062 342.777344 430.246094 336.164062 435.226562 331.230469 C 447.757812 318.695312 468.132812 318.695312 480.613281 331.230469 C 486.683594 337.300781 490.035156 345.34375 490.035156 353.929688 C 490.035156 362.519531 486.730469 370.613281 480.664062 376.632812 C 475.679688 381.617188 469.070312 384.875 462.066406 385.761719 C 450.867188 387.195312 421.117188 390.996094 418.457031 414.335938 C 416.828125 428.75 421.761719 442.863281 431.972656 453.128906 L 475.089844 496.261719 C 482.636719 503.8125 482.636719 516.148438 475.089844 523.699219 L 431.972656 566.832031 C 427.1875 571.570312 420.675781 573.890625 414.066406 573.148438 C 413.621094 572.953125 409.921875 570.289062 407.550781 551.386719 C 405.925781 538.898438 400.152344 527.105469 391.222656 518.125 C 368.875 495.765625 332.46875 495.765625 310.121094 518.125 C 299.269531 528.980469 293.296875 543.390625 293.296875 558.738281 C 293.296875 574.039062 299.269531 588.5 310.121094 599.355469 C 319.050781 608.238281 330.839844 614.011719 343.320312 615.59375 C 362.214844 618.011719 364.878906 621.710938 365.078125 622.007812 C 365.816406 628.71875 363.5 635.285156 358.761719 640.070312 L 315.644531 683.203125 C 308.097656 690.753906 295.765625 690.753906 288.21875 683.203125 L 245.101562 640.070312 C 234.890625 629.804688 220.679688 624.871094 206.375 626.546875 C 182.992188 629.214844 179.191406 658.972656 177.761719 670.175781 C 176.875 677.183594 173.617188 683.746094 168.683594 688.730469 C 162.617188 694.800781 154.527344 698.15625 145.941406 698.15625 C 137.359375 698.15625 129.316406 694.800781 123.25 688.730469 C 110.71875 676.195312 110.71875 655.8125 123.25 643.328125 C 128.234375 638.34375 134.84375 635.085938 141.847656 634.199219 C 152.996094 632.765625 182.792969 628.964844 185.410156 605.625 C 187.085938 591.210938 182.152344 577.097656 171.890625 566.832031 L 128.773438 523.699219 C 128.332031 523.207031 127.789062 522.761719 127.246094 522.367188 C 120.980469 514.816406 121.472656 503.417969 128.773438 496.261719 L 171.890625 453.128906 C 182.101562 442.863281 187.035156 428.75 185.410156 414.335938 C 182.746094 390.996094 152.996094 387.195312 141.800781 385.761719 C 134.792969 384.875 128.234375 381.617188 123.199219 376.632812 C 117.132812 370.613281 113.828125 362.519531 113.828125 353.929688 C 113.828125 345.34375 117.183594 337.300781 123.25 331.230469 C 135.78125 318.695312 156.15625 318.746094 168.636719 331.179688 C 173.617188 336.214844 176.824219 342.777344 177.714844 349.785156 C 179.191406 360.988281 182.992188 390.746094 206.324219 393.414062 C 220.78125 395.042969 234.839844 390.15625 245.101562 379.890625 L 288.21875 336.757812 C 295.765625 329.207031 308.097656 329.207031 315.644531 336.757812 Z M 333.503906 291.453125 L 492.945312 131.949219 C 500.25 124.644531 513.023438 124.644531 520.375 131.949219 L 563.492188 175.082031 C 573.703125 185.347656 587.863281 190.183594 602.269531 188.605469 C 625.601562 185.941406 629.402344 156.179688 630.878906 144.976562 C 631.769531 137.96875 634.976562 131.40625 639.910156 126.421875 C 652.4375 113.886719 672.863281 113.886719 685.34375 126.421875 C 697.875 138.90625 697.875 159.339844 685.394531 171.824219 C 680.359375 176.808594 673.800781 180.066406 666.792969 180.957031 C 655.597656 182.386719 625.847656 186.1875 623.183594 209.578125 C 621.558594 223.941406 626.488281 238.105469 636.703125 248.320312 L 679.816406 291.453125 C 687.367188 299.003906 687.367188 311.339844 679.816406 318.890625 L 636.703125 362.023438 C 626.441406 372.289062 621.507812 386.40625 623.183594 400.816406 C 625.800781 424.160156 655.546875 427.957031 666.746094 429.390625 C 673.75 430.277344 680.359375 433.535156 685.34375 438.519531 C 697.824219 451.003906 697.824219 471.386719 685.34375 483.921875 C 679.277344 489.992188 671.234375 493.347656 662.652344 493.347656 C 662.652344 493.347656 662.652344 493.347656 662.601562 493.347656 C 654.066406 493.347656 645.976562 489.992188 639.910156 483.972656 C 634.976562 478.988281 631.71875 472.375 630.832031 465.367188 C 629.402344 454.164062 625.601562 424.40625 602.21875 421.742188 C 587.765625 420.0625 573.703125 425.046875 563.492188 435.261719 L 520.375 478.394531 C 512.828125 485.945312 500.496094 485.945312 492.945312 478.394531 L 449.832031 435.261719 C 445.09375 430.523438 442.777344 423.910156 443.515625 417.347656 C 443.714844 416.902344 446.378906 413.25 465.273438 410.832031 C 477.753906 409.203125 489.542969 403.429688 498.523438 394.546875 C 509.324219 383.691406 515.292969 369.28125 515.292969 353.929688 C 515.292969 338.582031 509.324219 324.171875 498.472656 313.363281 C 476.125 290.960938 439.71875 291.007812 417.320312 313.363281 C 408.441406 322.296875 402.667969 334.09375 401.089844 346.578125 C 398.671875 365.480469 394.972656 368.144531 394.675781 368.34375 C 388.015625 369.082031 381.40625 366.8125 376.621094 362.023438 L 333.503906 318.890625 C 325.957031 311.339844 325.957031 299.003906 333.503906 291.453125 Z M 270.359375 318.890625 L 227.242188 362.023438 C 222.457031 366.761719 215.894531 369.082031 209.335938 368.390625 C 208.890625 368.144531 205.191406 365.480469 202.773438 346.578125 C 201.195312 334.09375 195.421875 322.296875 186.542969 313.316406 C 164.148438 291.007812 127.738281 291.007812 105.390625 313.316406 C 94.539062 324.171875 88.570312 338.582031 88.570312 353.929688 C 88.570312 369.28125 94.539062 383.691406 105.390625 394.546875 C 114.320312 403.429688 126.109375 409.203125 138.59375 410.832031 C 157.488281 413.25 160.152344 416.902344 160.347656 417.199219 C 161.089844 423.910156 158.769531 430.476562 154.035156 435.261719 L 110.964844 478.296875 C 93.453125 495.617188 93.15625 523.847656 110.421875 541.367188 C 110.964844 541.960938 111.609375 542.453125 112.25 542.898438 L 154.035156 584.699219 C 158.820312 589.484375 161.089844 596.050781 160.398438 602.613281 C 160.152344 603.007812 157.488281 606.707031 138.59375 609.128906 C 126.109375 610.753906 114.320312 616.53125 105.390625 625.414062 C 83.042969 647.820312 83.042969 684.238281 105.390625 706.597656 C 116.195312 717.453125 130.648438 723.425781 145.941406 723.425781 C 161.285156 723.425781 175.691406 717.453125 186.542969 706.597656 C 195.421875 697.664062 201.195312 685.867188 202.824219 673.382812 C 205.242188 654.480469 208.941406 651.816406 209.1875 651.617188 C 215.847656 650.878906 222.457031 653.148438 227.242188 657.933594 L 270.359375 701.070312 C 287.773438 718.488281 316.089844 718.488281 333.503906 701.070312 L 376.621094 657.933594 C 386.832031 647.71875 391.765625 633.554688 390.136719 619.144531 C 387.472656 595.800781 357.726562 592.003906 346.527344 590.523438 C 339.523438 589.632812 332.914062 586.425781 327.980469 581.441406 C 321.863281 575.371094 318.558594 567.328125 318.558594 558.738281 C 318.558594 550.152344 321.910156 542.109375 327.980469 536.039062 C 340.511719 523.503906 360.835938 523.503906 373.367188 535.988281 C 378.398438 541.070312 381.554688 547.488281 382.492188 554.59375 C 383.921875 565.796875 387.671875 595.554688 411.054688 598.21875 C 425.507812 599.847656 439.570312 594.914062 449.832031 584.699219 L 492.945312 541.566406 C 501.085938 533.421875 506.117188 522.464844 505.871094 509.140625 C 517.5625 509.386719 529.304688 505.144531 538.234375 496.261719 L 581.351562 453.128906 C 586.136719 448.339844 592.695312 446.070312 599.257812 446.761719 C 599.652344 447.007812 603.351562 449.671875 605.769531 468.574219 C 607.398438 481.058594 613.121094 492.855469 622.050781 501.835938 C 632.902344 512.644531 647.308594 518.617188 662.601562 518.617188 C 662.652344 518.617188 662.652344 518.617188 662.652344 518.617188 C 677.945312 518.617188 692.347656 512.644531 703.203125 501.789062 C 725.550781 479.433594 725.550781 443.011719 703.203125 420.605469 C 694.273438 411.722656 682.480469 405.949219 669.953125 404.367188 C 651.105469 401.902344 648.441406 398.25 648.246094 397.953125 C 647.503906 391.242188 649.773438 384.675781 654.558594 379.890625 L 697.675781 336.757812 C 706.113281 328.316406 710.75 317.117188 710.75 305.171875 C 710.75 293.230469 706.113281 282.027344 697.675781 273.585938 L 654.558594 230.453125 C 649.824219 225.667969 647.503906 219.105469 648.246094 212.539062 C 648.441406 212.144531 651.105469 208.445312 670 206.027344 C 682.480469 204.398438 694.273438 198.625 703.203125 189.738281 C 725.597656 167.335938 725.597656 130.914062 703.203125 108.558594 C 680.855469 86.199219 644.445312 86.152344 622.050781 108.558594 C 613.171875 117.488281 607.398438 129.285156 605.820312 141.769531 C 603.402344 160.671875 599.652344 163.335938 599.40625 163.535156 C 592.648438 164.324219 586.136719 162.003906 581.351562 157.21875 L 538.234375 114.085938 C 521.363281 97.207031 491.960938 97.207031 475.089844 114.085938 L 315.644531 273.585938 C 307.457031 281.78125 302.425781 292.589844 302.820312 306.40625 C 290.929688 306.160156 279.042969 310.207031 270.359375 318.890625 " fill-opacity="1" fill-rule="nonzero"/></g></svg>