<svg xmlns="http://www.w3.org/2000/svg" xmlns:xlink="http://www.w3.org/1999/xlink" width="1080" zoomAndPan="magnify" viewBox="0 0 810 809.999993" height="1080" preserveAspectRatio="xMidYMid meet" version="1.0"><defs><clipPath id="00768e7db8"><path d="M 102.871094 81 L 707.371094 81 L 707.371094 729 L 102.871094 729 Z M 102.871094 81 " clip-rule="nonzero"/></clipPath></defs><rect x="-81" width="972" fill="#ffffff" y="-80.999999" height="971.999992" fill-opacity="1"/><rect x="-81" width="972" fill="#ffffff" y="-80.999999" height="971.999992" fill-opacity="1"/><g clip-path="url(#00768e7db8)"><path fill="#000000" d="M 654.925781 708.042969 L 696.847656 708.042969 C 702.617188 708.042969 707.300781 712.722656 707.300781 718.488281 C 707.300781 724.253906 702.617188 728.9375 696.847656 728.9375 L 113.261719 728.9375 C 107.492188 728.9375 102.808594 724.253906 102.808594 718.488281 C 102.808594 712.722656 107.492188 708.042969 113.261719 708.042969 L 155.183594 708.042969 L 155.183594 473.546875 L 155.21875 473.546875 C 155.195312 473.125 155.183594 472.699219 155.183594 472.277344 C 155.183594 463.527344 160.121094 454.949219 169.792969 448.390625 C 180.585938 441.074219 197.929688 436.019531 217.566406 436.019531 C 237.203125 436.019531 254.546875 441.074219 265.339844 448.390625 C 275.015625 454.949219 279.953125 463.527344 279.953125 472.277344 C 279.953125 472.699219 279.941406 473.125 279.917969 473.546875 L 279.953125 473.546875 L 279.953125 708.042969 L 342.667969 708.042969 L 342.667969 359.65625 C 342.667969 350.910156 347.605469 342.328125 357.28125 335.769531 C 368.074219 328.453125 385.417969 323.398438 405.054688 323.398438 C 424.691406 323.398438 442.035156 328.453125 452.828125 335.769531 C 462.503906 342.328125 467.441406 350.910156 467.441406 359.65625 L 467.441406 708.042969 L 530.15625 708.042969 L 530.15625 226.0625 C 530.15625 217.316406 535.09375 208.734375 544.769531 202.179688 C 555.5625 194.863281 572.90625 189.808594 592.542969 189.808594 C 612.179688 189.808594 629.523438 194.863281 640.316406 202.179688 C 649.988281 208.734375 654.925781 217.316406 654.925781 226.0625 Z M 176.085938 708.042969 L 259.046875 708.042969 L 259.046875 499.800781 C 248.363281 505.101562 233.742188 508.53125 217.566406 508.53125 C 201.390625 508.53125 186.769531 505.101562 176.085938 499.800781 Z M 363.574219 708.042969 L 446.535156 708.042969 L 446.535156 387.183594 C 435.851562 392.480469 421.230469 395.910156 405.054688 395.910156 C 388.878906 395.910156 374.257812 392.480469 363.574219 387.183594 Z M 551.0625 708.042969 L 634.023438 708.042969 L 634.023438 253.589844 C 623.339844 258.886719 608.71875 262.320312 592.542969 262.320312 C 576.367188 262.320312 561.746094 258.886719 551.0625 253.589844 Z M 446.535156 359.65625 C 446.535156 356.984375 444.050781 355.066406 441.097656 353.066406 C 432.984375 347.566406 419.816406 344.296875 405.054688 344.296875 C 390.292969 344.296875 377.125 347.566406 369.011719 353.066406 C 366.058594 355.066406 363.574219 356.984375 363.574219 359.65625 C 363.574219 362.324219 366.058594 364.246094 369.011719 366.246094 C 377.125 371.746094 390.292969 375.015625 405.054688 375.015625 C 419.816406 375.015625 432.984375 371.746094 441.097656 366.246094 C 444.050781 364.246094 446.535156 362.324219 446.535156 359.65625 Z M 634.023438 226.0625 C 634.023438 223.394531 631.539062 221.472656 628.585938 219.472656 C 620.472656 213.972656 607.304688 210.703125 592.542969 210.703125 C 577.78125 210.703125 564.613281 213.972656 556.5 219.472656 C 553.546875 221.472656 551.0625 223.394531 551.0625 226.0625 C 551.0625 228.730469 553.546875 230.652344 556.5 232.652344 C 564.613281 238.152344 577.78125 241.425781 592.542969 241.425781 C 607.304688 241.425781 620.472656 238.152344 628.585938 232.652344 C 631.539062 230.652344 634.023438 228.730469 634.023438 226.0625 Z M 217.566406 456.914062 C 202.804688 456.914062 189.640625 460.1875 181.523438 465.683594 C 178.570312 467.6875 176.085938 469.605469 176.085938 472.277344 C 176.085938 474.945312 178.570312 476.867188 181.523438 478.867188 C 189.640625 484.367188 202.804688 487.636719 217.566406 487.636719 C 232.328125 487.636719 245.496094 484.367188 253.609375 478.867188 C 256.5625 476.867188 259.046875 474.945312 259.046875 472.277344 C 259.046875 469.605469 256.5625 467.6875 253.609375 465.683594 C 245.496094 460.1875 232.328125 456.914062 217.566406 456.914062 Z M 600.199219 118.324219 C 471.878906 227.851562 331.457031 297.039062 198.667969 341.757812 C 193.199219 343.597656 187.265625 340.65625 185.425781 335.191406 C 183.582031 329.730469 186.523438 323.796875 191.992188 321.957031 C 321.984375 278.179688 459.449219 210.597656 585.160156 103.683594 L 565.074219 104.753906 C 559.3125 105.0625 554.386719 100.636719 554.082031 94.878906 C 553.773438 89.121094 558.199219 84.195312 563.960938 83.890625 L 614.222656 81.210938 C 617.359375 81.042969 620.40625 82.292969 622.515625 84.617188 C 624.628906 86.941406 625.582031 90.089844 625.117188 93.195312 L 617.867188 141.425781 C 617.007812 147.128906 611.683594 151.0625 605.976562 150.207031 C 600.273438 149.347656 596.335938 144.023438 597.195312 138.324219 Z M 600.199219 118.324219 " fill-opacity="1" fill-rule="evenodd"/></g></svg>